<svg width="28" height="28" viewBox="0 0 28 28" fill="none" xmlns="http://www.w3.org/2000/svg">
<path d="M14 17.5C15.933 17.5 17.5 15.933 17.5 14C17.5 12.067 15.933 10.5 14 10.5C12.067 10.5 10.5 12.067 10.5 14C10.5 15.933 12.067 17.5 14 17.5Z" stroke="#2751CE" stroke-width="2.25" stroke-linecap="round" stroke-linejoin="round"/>
<path d="M22.1667 8.16667C23.4553 8.16667 24.5 7.122 24.5 5.83333C24.5 4.54467 23.4553 3.5 22.1667 3.5C20.878 3.5 19.8333 4.54467 19.8333 5.83333C19.8333 7.122 20.878 8.16667 22.1667 8.16667Z" stroke="#2751CE" stroke-width="2.25" stroke-linecap="round" stroke-linejoin="round"/>
<path d="M5.83333 24.5C7.122 24.5 8.16667 23.4553 8.16667 22.1667C8.16667 20.878 7.122 19.8333 5.83333 19.8333C4.54467 19.8333 3.5 20.878 3.5 22.1667C3.5 23.4553 4.54467 24.5 5.83333 24.5Z" stroke="#2751CE" stroke-width="2.25" stroke-linecap="round" stroke-linejoin="round"/>
<path d="M12.1333 25.55C14.3766 25.9186 16.6786 25.6238 18.7565 24.7018C20.8345 23.7798 22.5978 22.2709 23.8298 20.3604C25.0618 18.4498 25.7088 16.221 25.6913 13.9478C25.6737 11.6746 24.9925 9.45597 23.7312 7.56467" stroke="#2751CE" stroke-width="2.25" stroke-linecap="round" stroke-linejoin="round"/>
<path d="M15.75 2.45C13.516 2.10884 11.2309 2.42388 9.17252 3.35685C7.11414 4.28981 5.37103 5.80053 4.15501 7.70543C2.939 9.61034 2.30241 11.8274 2.32262 14.0873C2.34282 16.3471 3.01895 18.5525 4.26883 20.4353" stroke="#2751CE" stroke-width="2.25" stroke-linecap="round" stroke-linejoin="round"/>
</svg>
